<?xml version="1.0" encoding="UTF-8" standalone="no"?>
<svg
   width="255.14606"
   height="90.332657"
   viewBox="0 0 67.507394 23.900553"
   version="1.1"
   id="svg2"
   xmlns="http://www.w3.org/2000/svg"
   xmlns:svg="http://www.w3.org/2000/svg">
  <defs
     id="defs2" />
  <path
     style="font-style:normal;font-variant:normal;font-weight:400;font-stretch:normal;font-size:12.7px;line-height:1;font-family:'After Smile';-inkscape-font-specification:'After Smile';text-align:center;text-anchor:middle;display:inline;fill:#b1b1b1;fill-opacity:1;fill-rule:evenodd;stroke-width:0.562717"
     d="M 7.1267907,0.43850902 C 5.3455587,0.46612502 3.7244995,0.92455062 2.4955875,1.7751234 0.84829312,2.9363762 0.09299548,4.691373 0.44233792,6.4477506 0.76682592,8.0688098 2.0371619,9.3916163 3.8197747,10.012976 a 7.2381536,7.2381536 0 0 0 2.1595712,0.352104 c 0.4059552,0 0.8381456,-0.05523 1.24272,-0.107702 A 7.0337952,7.0337952 0 0 0 10.599502,8.6363186 L 8.7078067,6.4215154 C 8.1416787,6.907557 7.4388515,7.2582802 6.7097891,7.3659826 A 3.645312,3.645312 0 0 1 4.7642419,7.2306642 C 3.9537123,6.9614082 3.4138195,6.4477506 3.3061171,5.8540066 3.1445635,5.043477 3.7659235,4.449733 4.1704979,4.1790962 5.0348787,3.5853522 6.3038339,3.2884802 7.7094883,3.3685666 9.5183363,3.4776498 11.490118,4.1790962 13.434285,5.367965 l 0.02762,0.027616 -0.08147,18.015297 2.91763,0.02762 0.08147,-17.0708298 c 0.107703,0 0.216786,0.026235 0.352104,0.026235 0.20712,0.01795 0.422525,0.027616 0.640691,0.031758 v -0.01795 c 0.0041,0.00828 0.0083,0.013808 0.01519,0.019331 l -0.01381,-0.00138 0.463949,17.0114558 2.91763,-0.08009 -0.161553,-5.21252 c 0.62136,-0.567509 1.539592,-1.190249 2.241038,-1.24272 0.216786,-0.02762 0.405955,0.05247 0.567509,0.187789 0.05523,0.08147 0.458426,0.704208 0.538512,3.1068 0.05523,1.459506 -0.02485,2.754696 -0.02485,2.782312 l 2.916249,0.18917 c 0,-0.05523 0.109083,-1.539592 0.02762,-3.214503 -0.05385,-1.027315 -0.135318,-1.91655 -0.298253,-2.619377 -0.24302,-1.135018 -0.647595,-1.919312 -1.187488,-2.405354 a 3.7985808,3.7985808 0 0 0 -2.72846,-0.944467 c -0.755298,0.05385 -1.485741,0.324488 -2.133336,0.648976 l -0.227832,-8.4532572 0.02209,-0.063517 A 17.421554,17.421554 0 0 0 23.02395,5.3127342 l -1.133637,-2.699464 c 0,0.027616 -1.161253,0.4860416 -2.67461,0.7552976 -1.24272,0.2167856 -2.999097,0.296872 -4.240436,-0.4860416 C 12.59752,1.4244002 10.167312,0.58763542 7.8972771,0.45231702 A 11.366746,11.366746 0 0 0 7.1267907,0.43850902 Z M 42.188064,12.358955 c -0.686258,0.04833 -1.36423,0.262352 -2.011826,0.625503 -1.135017,0.62136 -1.999398,1.647294 -2.48544,2.890014 -0.538512,1.378038 -0.567508,2.891395 -0.05523,4.377136 0.487423,1.430509 1.540973,2.511675 2.999098,2.996336 0.62136,0.216786 1.297952,0.325869 2.027014,0.325869 0.432191,0 0.890616,-0.02762 1.349042,-0.110464 a 9.071856,9.071856 0 0 0 3.186886,-1.268955 l -1.728763,-2.619378 c -1.187488,0.782914 -2.780931,1.081166 -3.808247,0.729062 a 2.2893664,2.2893664 0 0 1 -0.512276,-0.269256 10.135072,10.135072 0 0 0 1.458124,-0.405955 c 1.998018,-0.648976 3.186887,-1.567208 3.645312,-2.728461 0.190551,-0.538512 0.216786,-1.10602 0.05523,-1.673529 a 3.3719136,3.3719136 0 0 0 -0.782913,-1.459506 4.0208896,4.0208896 0 0 0 -2.646994,-1.402893 4.3163808,4.3163808 0 0 0 -0.689019,-0.0055 z m 9.940379,0 c -0.686257,0.04833 -1.36423,0.262352 -2.011825,0.625503 -1.135018,0.62136 -1.999399,1.647294 -2.48544,2.890014 -0.539893,1.378038 -0.56889,2.891395 -0.05523,4.377136 0.486041,1.430509 1.539592,2.511675 2.999097,2.996336 0.62136,0.216786 1.297952,0.325869 2.025634,0.325869 0.43219,0 0.890616,-0.02762 1.350422,-0.110464 a 9.071856,9.071856 0 0 0 3.186887,-1.268955 l -1.728762,-2.619378 c -1.187488,0.782914 -2.782312,1.081166 -3.808246,0.729062 a 2.2893664,2.2893664 0 0 1 -0.513658,-0.269256 10.135072,10.135072 0 0 0 1.458125,-0.405955 c 1.999398,-0.648976 3.188267,-1.567208 3.646693,-2.728461 0.189169,-0.538512 0.216785,-1.10602 0.05523,-1.673529 a 3.3719136,3.3719136 0 0 0 -0.782914,-1.459506 4.0195088,4.0195088 0 0 0 -2.648374,-1.402893 4.3163808,4.3163808 0 0 0 -0.687639,-0.0055 z m 9.940379,0 c -0.686257,0.04833 -1.365611,0.262352 -2.014587,0.625503 -1.133637,0.62136 -1.996637,1.647294 -2.482678,2.890014 -0.541274,1.378038 -0.56889,2.891395 -0.05523,4.377136 0.486041,1.430509 1.539592,2.511675 2.997717,2.996336 0.62136,0.216786 1.296571,0.325869 2.025633,0.325869 0.432191,0 0.891997,-0.02762 1.350423,-0.110464 a 9.071856,9.071856 0 0 0 3.188267,-1.268955 l -1.728762,-2.619378 c -1.188869,0.782914 -2.782312,1.081166 -3.808246,0.729062 a 2.2893664,2.2893664 0 0 1 -0.513658,-0.269256 10.135072,10.135072 0 0 0 1.458125,-0.405955 c 1.999398,-0.648976 3.188267,-1.567208 3.646693,-2.728461 0.189169,-0.538512 0.216785,-1.10602 0.05523,-1.673529 a 3.3719136,3.3719136 0 0 0 -0.784295,-1.459506 4.0208896,4.0208896 0 0 0 -2.646993,-1.402893 4.3163808,4.3163808 0 0 0 -0.687639,-0.0055 z m -28.095137,0.433571 c -0.415621,-0.03038 -0.861619,0.01657 -1.333853,0.13808 -0.593744,0.135319 -1.24272,0.405956 -1.971782,0.81053 l -0.270637,0.161554 c -0.243021,-0.62136 -0.458426,-0.972084 -0.486042,-1.025935 l -2.48544,1.539592 c 0,0.02762 1.567208,2.700845 0.676592,8.588576 l 2.890015,0.433571 c 0.350723,-2.403972 0.404574,-4.59254 0.135318,-6.538088 l 0.836765,-0.538512 c 1.052169,-0.593744 1.565827,-0.648976 1.728761,-0.648976 0.05385,0.135319 0.161554,0.486042 0.08009,1.297952 l 2.91763,0.24164 c 0.08147,-0.972083 0.02762,-1.756377 -0.189169,-2.430208 a 2.9631968,2.9631968 0 0 0 -1.376658,-1.702526 2.8403056,2.8403056 0 0 0 -1.151587,-0.32725 z m 8.498824,2.677372 c 0.02762,0 0.05247,0 0.08009,0.02762 0.243021,0 0.432191,0.107702 0.593744,0.296872 0.02762,0.05385 0.05523,0.08009 0.05523,0.107702 -0.19055,0.161554 -0.704208,0.486042 -1.730142,0.809149 -0.296872,0.08285 -0.593744,0.162934 -0.836765,0.243021 0.243021,-0.566128 0.62136,-0.998319 1.079786,-1.24272 0.24302,-0.160173 0.515038,-0.24164 0.758059,-0.24164 z m 9.938998,0 c 0.02762,0 0.05385,0 0.08009,0.02762 0.244401,0 0.433571,0.107702 0.595124,0.296872 0.02762,0.05385 0.05523,0.08009 0.05523,0.107702 -0.19055,0.161554 -0.704208,0.486042 -1.730142,0.809149 -0.296872,0.08285 -0.593744,0.162934 -0.836765,0.243021 0.243021,-0.566128 0.62136,-0.998319 1.079786,-1.24272 0.243021,-0.160173 0.513657,-0.24164 0.756678,-0.24164 z m 9.938999,0 c 0.02762,0 0.05523,0 0.08285,0.02762 0.24164,0 0.430809,0.107702 0.593744,0.296872 0.02762,0.05385 0.05385,0.08009 0.05385,0.107702 -0.18917,0.161554 -0.702827,0.486042 -1.728762,0.809149 -0.296872,0.08285 -0.593744,0.162934 -0.838145,0.243021 0.24302,-0.566128 0.62136,-0.998319 1.081166,-1.24272 0.243021,-0.160173 0.512277,-0.24164 0.755298,-0.24164 z"
     id="path1" />
  <path
     style="font-style:normal;font-variant:normal;font-weight:400;font-stretch:normal;font-size:12.7px;line-height:1;font-family:'After Smile';-inkscape-font-specification:'After Smile';text-align:center;text-anchor:middle;fill:#ffffff;fill-opacity:1;fill-rule:evenodd;stroke:none;stroke-width:0.762093;stroke-dasharray:none;stroke-opacity:1"
     d="M 8.3584643,0.09330907 C 6.6407491,0.12092507 5.0763027,0.56278102 3.8915763,1.384357 2.3022755,2.5041858 1.5718323,4.1970466 1.9101283,5.8912882 c 0.3134416,1.5630656 1.5382112,2.8403056 3.258688,3.4381921 0.6503568,0.209882 1.3808,0.339677 2.0836272,0.339677 0.3907664,0 0.807768,-0.05109 1.1985344,-0.10356 A 6.7852512,6.7852512 0 0 0 11.708285,8.0025314 L 9.8856293,5.865053 C 9.3374513,6.334525 8.6594787,6.672821 7.9566515,6.776381 A 3.5168976,3.5168976 0 0 1 6.0787635,6.6465858 C 5.2972307,6.3869954 4.7766691,5.8912882 4.6731091,5.3182562 4.5156979,4.5367234 5.1149651,3.9636914 5.5071123,3.7027202 6.3411155,3.1296882 7.5645043,2.8438626 8.9204499,2.9211874 10.665781,3.0261282 12.567142,3.7027202 14.44365,4.8487842 l 0.02623,0.027616 -0.07871,17.3773678 2.814071,0.02762 0.07871,-16.4674206 c 0.10356,0 0.208501,0.024854 0.339677,0.024854 0.198835,0.01795 0.407336,0.027616 0.618598,0.031758 v -0.01795 c 0.0028,0.0069 0.0069,0.013808 0.01381,0.01795 h -0.01381 l 0.44876,16.4108076 2.814071,-0.07871 -0.156031,-5.028873 c 0.599268,-0.546797 1.48436,-1.146064 2.162333,-1.198535 a 0.704208,0.704208 0 0 1 0.546797,0.182266 c 0.05247,0.07733 0.441856,0.676592 0.520562,2.996336 0.05247,1.408416 -0.02486,2.65804 -0.02486,2.684275 l 2.814071,0.182266 c 0,-0.05247 0.10356,-1.485741 0.02623,-3.101277 -0.05247,-0.990034 -0.131176,-1.850272 -0.287207,-2.526864 -0.234736,-1.093594 -0.625502,-1.850272 -1.146064,-2.319744 a 3.6646432,3.6646432 0 0 0 -2.631804,-0.911328 c -0.729063,0.05109 -1.433271,0.312061 -2.058773,0.625502 L 21.049397,5.6316978 c 0.0097,-0.01795 0.01519,-0.038662 0.02209,-0.059374 a 16.805717,16.805717 0 0 0 2.62352,-0.7760096 L 22.600035,2.192125 c 0,0.026235 -1.121209,0.469472 -2.579334,0.7290624 C 18.822166,3.1296882 17.127925,3.207013 15.92939,2.4517154 13.635882,1.0446802 11.289902,0.23829302 9.1027155,0.10711707 a 10.919366,10.919366 0 0 0 -0.745632,-0.013808 z M 42.179779,11.592611 c -0.661403,0.04833 -1.315902,0.252687 -1.940024,0.604791 -1.094974,0.599267 -1.928977,1.58792 -2.397069,2.786454 -0.521942,1.32971 -0.548177,2.789216 -0.05385,4.222486 0.469472,1.3808 1.485741,2.423304 2.892776,2.891396 0.599267,0.2085 1.251005,0.313441 1.955213,0.313441 0.417002,0 0.858858,-0.02762 1.300714,-0.104941 a 8.7515104,8.7515104 0 0 0 3.075041,-1.224769 l -1.668007,-2.526864 c -1.146064,0.755297 -2.682895,1.042504 -3.672928,0.704208 a 2.20928,2.20928 0 0 1 -0.495707,-0.262352 9.776064,9.776064 0 0 0 1.408416,-0.390767 c 1.927596,-0.625502 3.07366,-1.510595 3.516897,-2.630424 0.182266,-0.521942 0.20712,-1.068739 0.05109,-1.615536 a 3.251784,3.251784 0 0 0 -0.753917,-1.408416 3.8786672,3.8786672 0 0 0 -2.55448,-1.353184 4.170016,4.170016 0 0 0 -0.662784,-0.0055 z m 9.589656,0 c -0.662784,0.04833 -1.315902,0.252687 -1.941405,0.604791 -1.094974,0.599267 -1.928977,1.58792 -2.397068,2.786454 -0.521943,1.32971 -0.548178,2.789216 -0.05385,4.222486 0.469472,1.3808 1.485741,2.423304 2.892776,2.891396 0.599268,0.2085 1.251005,0.313441 1.955213,0.313441 0.417002,0 0.858858,-0.02762 1.302095,-0.104941 a 8.7515104,8.7515104 0 0 0 3.07366,-1.224769 l -1.666627,-2.526864 c -1.146064,0.755297 -2.684275,1.042504 -3.674309,0.704208 a 2.20928,2.20928 0 0 1 -0.495707,-0.262352 9.776064,9.776064 0 0 0 1.408416,-0.390767 c 1.927597,-0.625502 3.073661,-1.510595 3.516897,-2.630424 0.182266,-0.521942 0.20712,-1.068739 0.05247,-1.615536 a 3.251784,3.251784 0 0 0 -0.755298,-1.408416 3.8786672,3.8786672 0 0 0 -2.55448,-1.353184 4.170016,4.170016 0 0 0 -0.662784,-0.0055 z m 9.588275,0 c -0.662784,0.04833 -1.317283,0.252687 -1.942785,0.604791 -1.093594,0.599267 -1.927597,1.58792 -2.395688,2.786454 -0.521943,1.32971 -0.548178,2.789216 -0.05385,4.222486 0.469472,1.3808 1.48574,2.423304 2.892776,2.891396 a 5.909824,5.909824 0 0 0 1.953832,0.313441 c 0.417001,0 0.860238,-0.02762 1.303475,-0.104941 a 8.7515104,8.7515104 0 0 0 3.073661,-1.224769 l -1.666627,-2.526864 c -1.146064,0.755297 -2.684275,1.042504 -3.672928,0.704208 a 2.20928,2.20928 0 0 1 -0.497088,-0.262352 9.776064,9.776064 0 0 0 1.408416,-0.390767 c 1.927597,-0.625502 3.073661,-1.510595 3.516898,-2.630424 0.182265,-0.521942 0.20712,-1.068739 0.05247,-1.615536 a 3.251784,3.251784 0 0 0 -0.755298,-1.408416 3.8786672,3.8786672 0 0 0 -2.55448,-1.353184 4.170016,4.170016 0 0 0 -0.662784,-0.0055 z m -27.102342,0.418383 a 4.0001776,4.0001776 0 0 0 -1.285525,0.133937 c -0.573032,0.131176 -1.198534,0.390767 -1.902742,0.781533 l -0.260971,0.15603 C 30.571394,12.483227 30.364274,12.14355 30.338038,12.092461 l -2.397068,1.485741 c 0,0.02485 1.510595,2.604188 0.650356,8.2848 l 2.789216,0.418382 c 0.338296,-2.319744 0.390767,-4.430987 0.129796,-6.306114 l 0.806387,-0.520561 c 1.016269,-0.574413 1.511976,-0.625503 1.668006,-0.625503 0.05247,0.129796 0.157411,0.469472 0.07871,1.251005 l 2.81407,0.234736 c 0.07733,-0.938944 0.02623,-1.694241 -0.182265,-2.34736 a 2.858256,2.858256 0 0 0 -1.32833,-1.64039 2.7395072,2.7395072 0 0 0 -1.111544,-0.316203 z m 8.19919,2.582096 c 0.02486,0 0.05109,0 0.07733,0.02762 0.234736,0 0.417002,0.10356 0.573032,0.285825 0.02623,0.05247 0.05247,0.07871 0.05247,0.104941 -0.182266,0.15603 -0.677973,0.468091 -1.668007,0.780152 -0.287206,0.07871 -0.573032,0.157411 -0.807768,0.234736 0.234736,-0.546797 0.599267,-0.963798 1.042504,-1.197154 0.234736,-0.157411 0.495707,-0.234736 0.730443,-0.234736 z m 9.586895,0 c 0.02623,0 0.05247,0 0.0787,0.02762 0.234736,0 0.417002,0.10356 0.573032,0.285825 0.02624,0.05247 0.05247,0.07871 0.05247,0.104941 -0.182266,0.15603 -0.677973,0.468091 -1.668007,0.780152 -0.287206,0.07871 -0.573032,0.157411 -0.807768,0.234736 0.234736,-0.546797 0.599268,-0.963798 1.042504,-1.197154 a 1.339376,1.339376 0 0 1 0.729063,-0.234736 z m 9.588275,0 c 0.02623,0 0.05247,0 0.07871,0.02762 0.234736,0 0.417001,0.10356 0.573032,0.285825 0.02762,0.05247 0.05247,0.07871 0.05247,0.104941 -0.182266,0.15603 -0.676592,0.468091 -1.668006,0.780152 -0.285826,0.07871 -0.573032,0.157411 -0.807768,0.234736 0.234736,-0.546797 0.599267,-0.963798 1.042504,-1.197154 a 1.339376,1.339376 0 0 1 0.729062,-0.234736 z"
     id="path2" />
</svg>
