<svg width="360" height="800" viewBox="0 0 95.25 211.667" xmlns="http://www.w3.org/2000/svg">
    <path style="font-style:normal;font-variant:normal;font-weight:400;font-stretch:normal;font-size:12.7px;line-height:1;font-family:'After Smile';-inkscape-font-specification:'After Smile';text-align:center;text-anchor:middle;display:inline;fill:#b1b1b1;fill-opacity:1;fill-rule:evenodd;stroke-width:.40753" d="M28.367 63.822c-1.29.02-2.464.352-3.354.968-1.193.841-1.74 2.112-1.487 3.384.235 1.174 1.155 2.132 2.446 2.582a5.242 5.242 0 0 0 1.564.255c.294 0 .607-.04.9-.078a5.094 5.094 0 0 0 2.446-1.174l-1.37-1.604c-.41.352-.919.606-1.447.684a2.64 2.64 0 0 1-1.409-.098c-.587-.195-.978-.567-1.056-.997-.117-.587.333-1.017.626-1.213.626-.43 1.545-.645 2.563-.587 1.31.079 2.738.587 4.146 1.448l.02.02-.059 13.047 2.113.02.059-12.363c.078 0 .157.019.255.019.15.013.306.02.464.023v-.013c.003.006.006.01.011.014l-.01-.001.336 12.32 2.113-.058-.117-3.775c.45-.411 1.115-.862 1.623-.9.157-.02.294.038.411.136.04.059.332.51.39 2.25.04 1.057-.018 1.995-.018 2.015l2.112.137c0-.04.079-1.115.02-2.328-.039-.744-.098-1.388-.216-1.897-.176-.822-.469-1.39-.86-1.742a2.751 2.751 0 0 0-1.976-.684c-.547.039-1.076.235-1.545.47l-.165-6.122.016-.046a12.617 12.617 0 0 0 1.968-.582l-.821-1.955c0 .02-.841.352-1.937.547-.9.157-2.172.215-3.071-.352-1.722-1.056-3.482-1.662-5.126-1.76a8.232 8.232 0 0 0-.558-.01zm25.392 8.633c-.497.035-.988.19-1.457.453-.822.45-1.448 1.193-1.8 2.093-.39.998-.411 2.094-.04 3.17.353 1.036 1.116 1.819 2.172 2.17.45.157.94.236 1.468.236.313 0 .645-.02.977-.08a6.57 6.57 0 0 0 2.308-.919l-1.252-1.897c-.86.567-2.014.783-2.758.528a1.658 1.658 0 0 1-.371-.195 7.34 7.34 0 0 0 1.056-.294c1.447-.47 2.308-1.135 2.64-1.976.138-.39.157-.801.04-1.212a2.442 2.442 0 0 0-.567-1.057 2.912 2.912 0 0 0-1.917-1.016 3.126 3.126 0 0 0-.499-.004zm7.199 0c-.497.035-.988.19-1.457.453-.822.45-1.448 1.193-1.8 2.093-.391.998-.412 2.094-.04 3.17.352 1.036 1.115 1.819 2.172 2.17.45.157.94.236 1.467.236.313 0 .645-.02.978-.08a6.57 6.57 0 0 0 2.308-.919l-1.252-1.897c-.86.567-2.015.783-2.758.528a1.658 1.658 0 0 1-.372-.195 7.34 7.34 0 0 0 1.056-.294c1.448-.47 2.309-1.135 2.641-1.976.137-.39.157-.801.04-1.212a2.442 2.442 0 0 0-.567-1.057 2.911 2.911 0 0 0-1.918-1.016 3.126 3.126 0 0 0-.498-.004zm7.199 0c-.497.035-.989.19-1.459.453-.821.45-1.446 1.193-1.798 2.093-.392.998-.412 2.094-.04 3.17.352 1.036 1.115 1.819 2.171 2.17.45.157.939.236 1.467.236.313 0 .646-.02.978-.08a6.57 6.57 0 0 0 2.309-.919l-1.252-1.897c-.861.567-2.015.783-2.758.528a1.658 1.658 0 0 1-.372-.195 7.34 7.34 0 0 0 1.056-.294c1.448-.47 2.309-1.135 2.641-1.976.137-.39.157-.801.04-1.212a2.442 2.442 0 0 0-.568-1.057 2.912 2.912 0 0 0-1.917-1.016 3.126 3.126 0 0 0-.498-.004zm-20.347.314c-.301-.022-.624.012-.966.1-.43.098-.9.294-1.428.587l-.196.117c-.176-.45-.332-.704-.352-.743l-1.8 1.115c0 .02 1.135 1.956.49 6.22l2.093.314c.254-1.741.293-3.326.098-4.735l.606-.39c.762-.43 1.134-.47 1.252-.47.039.098.117.352.058.94l2.113.175c.059-.704.02-1.272-.137-1.76a2.146 2.146 0 0 0-.997-1.233 2.057 2.057 0 0 0-.834-.237zm6.155 1.939c.02 0 .038 0 .058.02.176 0 .313.078.43.215.02.039.04.058.04.078-.138.117-.51.352-1.253.586-.215.06-.43.118-.606.176.176-.41.45-.723.782-.9.176-.116.373-.175.549-.175zm7.198 0c.02 0 .039 0 .058.02.177 0 .314.078.431.215.02.039.04.058.04.078-.138.117-.51.352-1.253.586-.215.06-.43.118-.606.176.176-.41.45-.723.782-.9.176-.116.372-.175.548-.175zm7.198 0c.02 0 .04 0 .06.02.175 0 .312.078.43.215.02.039.039.058.039.078-.137.117-.509.352-1.252.586-.215.06-.43.118-.607.176.176-.41.45-.723.783-.9.176-.116.371-.175.547-.175z" transform="matrix(1.3808 0 0 1.3808 -18.135 -40.998)"/>
    <path style="font-style:normal;font-variant:normal;font-weight:400;font-stretch:normal;font-size:12.7px;line-height:1;font-family:'After Smile';-inkscape-font-specification:'After Smile';text-align:center;text-anchor:middle;fill:#fff;fill-opacity:1;fill-rule:evenodd;stroke:none;stroke-width:.551921;stroke-dasharray:none;stroke-opacity:1" d="M29.259 63.572c-1.244.02-2.377.34-3.235.935-1.151.811-1.68 2.037-1.435 3.264.227 1.132 1.114 2.057 2.36 2.49.471.152 1 .246 1.509.246.283 0 .585-.037.868-.075a4.914 4.914 0 0 0 2.359-1.132l-1.32-1.548c-.397.34-.888.585-1.397.66a2.547 2.547 0 0 1-1.36-.094c-.566-.188-.943-.547-1.018-.962-.114-.566.32-.981.604-1.17.604-.415 1.49-.622 2.472-.566 1.264.076 2.641.566 4 1.396l.019.02-.057 12.585 2.038.02.057-11.926c.075 0 .151.018.246.018.144.013.295.02.448.023v-.013c.002.005.005.01.01.013h-.01l.325 11.885 2.038-.057-.113-3.642c.434-.396 1.075-.83 1.566-.868a.51.51 0 0 1 .396.132c.038.056.32.49.377 2.17.038 1.02-.018 1.925-.018 1.944l2.038.132c0-.038.075-1.076.019-2.246-.038-.717-.095-1.34-.208-1.83-.17-.792-.453-1.34-.83-1.68a2.654 2.654 0 0 0-1.906-.66c-.528.037-1.038.226-1.491.453l-.16-5.906c.007-.013.011-.028.016-.043a12.171 12.171 0 0 0 1.9-.562l-.793-1.886c0 .019-.812.34-1.868.528-.868.151-2.095.207-2.963-.34-1.661-1.019-3.36-1.603-4.944-1.698a7.908 7.908 0 0 0-.54-.01zM53.753 71.9c-.479.035-.953.183-1.405.438-.793.434-1.397 1.15-1.736 2.018-.378.963-.397 2.02-.039 3.058.34 1 1.076 1.755 2.095 2.094.434.151.906.227 1.416.227.302 0 .622-.02.942-.076a6.338 6.338 0 0 0 2.227-.887l-1.208-1.83c-.83.547-1.943.755-2.66.51a1.6 1.6 0 0 1-.359-.19 7.08 7.08 0 0 0 1.02-.283c1.396-.453 2.226-1.094 2.547-1.905.132-.378.15-.774.037-1.17a2.355 2.355 0 0 0-.546-1.02 2.809 2.809 0 0 0-1.85-.98 3.02 3.02 0 0 0-.48-.004zm6.945 0c-.48.035-.953.183-1.406.438-.793.434-1.397 1.15-1.736 2.018-.378.963-.397 2.02-.039 3.058.34 1 1.076 1.755 2.095 2.094.434.151.906.227 1.416.227.302 0 .622-.02.943-.076a6.338 6.338 0 0 0 2.226-.887l-1.207-1.83c-.83.547-1.944.755-2.661.51a1.6 1.6 0 0 1-.359-.19 7.08 7.08 0 0 0 1.02-.283c1.396-.453 2.226-1.094 2.547-1.905.132-.378.15-.774.038-1.17a2.355 2.355 0 0 0-.547-1.02 2.809 2.809 0 0 0-1.85-.98 3.02 3.02 0 0 0-.48-.004zm6.944 0c-.48.035-.954.183-1.407.438-.792.434-1.396 1.15-1.735 2.018-.378.963-.397 2.02-.039 3.058.34 1 1.076 1.755 2.095 2.094a4.28 4.28 0 0 0 1.415.227c.302 0 .623-.02.944-.076a6.338 6.338 0 0 0 2.226-.887l-1.207-1.83c-.83.547-1.944.755-2.66.51a1.6 1.6 0 0 1-.36-.19 7.08 7.08 0 0 0 1.02-.283c1.396-.453 2.226-1.094 2.547-1.905.132-.378.15-.774.038-1.17a2.355 2.355 0 0 0-.547-1.02 2.809 2.809 0 0 0-1.85-.98 3.02 3.02 0 0 0-.48-.004zm-19.628.303a2.897 2.897 0 0 0-.931.097c-.415.095-.868.283-1.378.566l-.189.113c-.17-.434-.32-.68-.339-.717l-1.736 1.076c0 .018 1.094 1.886.471 6l2.02.303c.245-1.68.283-3.209.094-4.567l.584-.377c.736-.416 1.095-.453 1.208-.453.038.094.114.34.057.906l2.038.17c.056-.68.019-1.227-.132-1.7a2.07 2.07 0 0 0-.962-1.188 1.984 1.984 0 0 0-.805-.229zm5.938 1.87c.018 0 .037 0 .056.02.17 0 .302.075.415.207.019.038.038.057.038.076-.132.113-.491.339-1.208.565-.208.057-.415.114-.585.17.17-.396.434-.698.755-.867.17-.114.359-.17.529-.17zm6.943 0c.019 0 .038 0 .057.02.17 0 .302.075.415.207.019.038.038.057.038.076-.132.113-.491.339-1.208.565-.208.057-.415.114-.585.17.17-.396.434-.698.755-.867a.97.97 0 0 1 .528-.17zm6.944 0c.019 0 .038 0 .057.02.17 0 .302.075.415.207.02.038.038.057.038.076-.132.113-.49.339-1.208.565-.207.057-.415.114-.585.17.17-.396.434-.698.755-.867a.97.97 0 0 1 .528-.17z" transform="matrix(1.3808 0 0 1.3808 -18.135 -40.998)"/>
</svg>
