<?xml version="1.0" encoding="UTF-8" standalone="no"?>
<!-- Created with Inkscape (http://www.inkscape.org/) -->

<svg
   width="360"
   height="800"
   viewBox="0 0 95.25 211.66666"
   version="1.1"
   id="svg1"
   inkscape:version="1.3.2 (091e20e, 2023-11-25, custom)"
   sodipodi:docname="Threee.svg"
   xmlns:inkscape="http://www.inkscape.org/namespaces/inkscape"
   xmlns:sodipodi="http://sodipodi.sourceforge.net/DTD/sodipodi-0.dtd"
   xmlns="http://www.w3.org/2000/svg"
   xmlns:svg="http://www.w3.org/2000/svg">
  <sodipodi:namedview
     id="namedview1"
     pagecolor="#ffffff"
     bordercolor="#111111"
     borderopacity="1"
     inkscape:showpageshadow="0"
     inkscape:pageopacity="0"
     inkscape:pagecheckerboard="1"
     inkscape:deskcolor="#d1d1d1"
     inkscape:document-units="px"
     inkscape:zoom="1.423583"
     inkscape:cx="68.13793"
     inkscape:cy="145.75897"
     inkscape:window-width="1912"
     inkscape:window-height="1003"
     inkscape:window-x="-5"
     inkscape:window-y="3"
     inkscape:window-maximized="0"
     inkscape:current-layer="layer1" />
  <defs
     id="defs1" />
  <g
     inkscape:label="Layer 1"
     inkscape:groupmode="layer"
     id="layer1">
    <rect
       style="display:none;fill:#2c655e;fill-opacity:1;fill-rule:evenodd;stroke-width:0.264583"
       id="rect1"
       width="98.302887"
       height="66.761856"
       x="-0.83475548"
       y="21.532759" />
    <g
       id="g1"
       transform="matrix(1.3807973,0,0,1.3807973,-18.135471,-40.997792)">
      <path
         id="text3"
         style="font-style:normal;font-variant:normal;font-weight:normal;font-stretch:normal;font-size:12.7px;line-height:1;font-family:'After Smile';-inkscape-font-specification:'After Smile';text-align:center;text-anchor:middle;display:inline;fill:#b1b1b1;fill-opacity:1;fill-rule:evenodd;stroke-width:0.40753"
         d="m 28.366658,63.821635 c -1.288805,0.02086 -2.463332,0.352497 -3.353379,0.968682 -1.19325,0.841146 -1.741152,2.112129 -1.486853,3.383625 0.234738,1.17369 1.154131,2.132181 2.445189,2.582095 0.489037,0.156492 1.036696,0.254707 1.564857,0.254707 0.293421,0 0.606807,-0.03888 0.90023,-0.078 0.899829,-0.156492 1.740976,-0.567633 2.445188,-1.174041 l -1.369051,-1.603858 c -0.41079,0.352107 -0.91969,0.606279 -1.447851,0.684525 -0.469475,0.09781 -0.978495,0.05859 -1.408849,-0.0979 -0.586843,-0.195616 -0.977992,-0.566985 -1.056238,-0.997338 -0.117369,-0.586844 0.332999,-1.017427 0.626421,-1.213041 0.625967,-0.430354 1.544998,-0.645308 2.562195,-0.586624 1.310619,0.07825 2.738522,0.586349 4.146949,1.447056 l 0.0199,0.0199 -0.0589,13.047374 2.112476,0.0199 0.0589,-12.362847 c 0.07825,0 0.156898,0.0191 0.254706,0.0191 0.149853,0.01325 0.305953,0.01979 0.464842,0.02309 v -0.01278 c 0.0023,0.0053 0.0053,0.01006 0.01109,0.01356 -0.0038,-7.3e-5 -0.0074,-7.17e-4 -0.01109,-7.96e-4 l 0.33669,12.320663 2.112476,-0.0589 -0.116999,-3.775237 c 0.449914,-0.410791 1.11516,-0.861107 1.623758,-0.90023 0.156492,-0.01956 0.293347,0.03909 0.410716,0.1369 0.03912,0.05868 0.332132,0.509206 0.390816,2.250178 0.03912,1.056321 -0.0191,1.995013 -0.0191,2.014574 l 2.112477,0.1369 c 0,-0.03912 0.07859,-1.115371 0.0199,-2.328183 -0.03912,-0.743336 -0.09834,-1.388174 -0.215705,-1.896772 -0.176054,-0.821583 -0.469202,-1.389454 -0.860433,-1.741561 -0.567283,-0.489036 -1.251797,-0.723648 -1.975571,-0.684525 -0.547723,0.03912 -1.076279,0.234879 -1.545756,0.469616 l -0.164763,-6.121725 c 0.0061,-0.01448 0.01063,-0.02996 0.01592,-0.04538 1.11034,-0.237655 1.933341,-0.564311 1.968408,-0.581846 l -0.82143,-1.955672 c 0,0.01956 -0.841126,0.352005 -1.936571,0.547619 -0.899828,0.156492 -2.171781,0.214673 -3.071608,-0.352609 -1.721411,-1.056321 -3.482021,-1.66206 -5.125186,-1.759867 -0.188279,-0.0097 -0.374648,-0.0134 -0.558764,-0.01037 z m 25.392709,8.63298 c -0.496985,0.03576 -0.987927,0.189618 -1.457402,0.453696 -0.821584,0.449915 -1.447559,1.19275 -1.799667,2.092579 -0.391228,0.997636 -0.411465,2.093631 -0.0398,3.169512 0.352107,1.036759 1.115058,1.819272 2.171379,2.171378 0.449914,0.156492 0.93959,0.234808 1.46775,0.234808 0.312983,0 0.644892,-0.02011 0.977438,-0.0788 0.821583,-0.156492 1.604069,-0.469418 2.308284,-0.919333 L 56.135308,77.68089 c -0.860707,0.567284 -2.014664,0.782818 -2.758002,0.528519 -0.136931,-0.05868 -0.273906,-0.117555 -0.371713,-0.195806 0.312984,-0.05868 0.665009,-0.156779 1.056238,-0.293709 1.447552,-0.469477 2.30845,-1.13443 2.640994,-1.975573 0.136931,-0.39123 0.156372,-0.801456 0.039,-1.212246 -0.07825,-0.352108 -0.2733,-0.724491 -0.566723,-1.057035 -0.508599,-0.586845 -1.174131,-0.938196 -1.917468,-1.016441 -0.166272,-0.01463 -0.332609,-0.01589 -0.498271,-0.004 z m 7.198659,0 c -0.496984,0.03576 -0.987925,0.189618 -1.457401,0.453696 -0.821582,0.449915 -1.447558,1.19275 -1.799665,2.092579 -0.39123,0.997636 -0.411466,2.093631 -0.0398,3.169512 0.352106,1.036759 1.115057,1.819272 2.171379,2.171378 0.449913,0.156492 0.93959,0.234808 1.467749,0.234808 0.312984,0 0.644893,-0.02011 0.977439,-0.0788 0.821582,-0.156492 1.60407,-0.469418 2.308283,-0.919333 l -1.252049,-1.897573 c -0.860705,0.567284 -2.014665,0.782818 -2.758001,0.528519 -0.136929,-0.05868 -0.273905,-0.117555 -0.371713,-0.195807 0.312983,-0.05868 0.665009,-0.156778 1.056239,-0.293709 1.44755,-0.469476 2.308449,-1.134429 2.640995,-1.975572 0.13693,-0.39123 0.15637,-0.801457 0.039,-1.212246 -0.07825,-0.352108 -0.2733,-0.724491 -0.566723,-1.057035 -0.508597,-0.586846 -1.174131,-0.938197 -1.917467,-1.016441 -0.166272,-0.01463 -0.332608,-0.01589 -0.498271,-0.004 z m 7.198661,0 c -0.496983,0.03576 -0.988723,0.189618 -1.458198,0.453696 -0.821583,0.449915 -1.446762,1.19275 -1.79887,2.092579 -0.391228,0.997636 -0.411466,2.093631 -0.0398,3.169512 0.352107,1.036759 1.115058,1.819272 2.171378,2.171378 0.449914,0.156492 0.938794,0.234808 1.466955,0.234808 0.312983,0 0.645688,-0.02011 0.978233,-0.0788 0.821584,-0.156492 1.604071,-0.469418 2.308284,-0.919333 L 70.53262,77.680882 c -0.860704,0.567284 -2.014662,0.782818 -2.758,0.528519 -0.13693,-0.05868 -0.273905,-0.117555 -0.371713,-0.195807 0.312985,-0.05868 0.66501,-0.156778 1.056239,-0.293709 1.44755,-0.469476 2.30845,-1.134429 2.640994,-1.975572 0.13693,-0.39123 0.156372,-0.801457 0.039,-1.212246 -0.07825,-0.352108 -0.273302,-0.724491 -0.566723,-1.057035 -0.508599,-0.586846 -1.174131,-0.938197 -1.917468,-1.016441 -0.166272,-0.01463 -0.33261,-0.01589 -0.498271,-0.004 z M 47.809568,72.76902 c -0.300759,-0.02201 -0.623174,0.01233 -0.965499,0.100286 -0.430354,0.09781 -0.899793,0.293199 -1.427954,0.586621 l -0.195806,0.117 c -0.176052,-0.449914 -0.332251,-0.704302 -0.351812,-0.743426 l -1.799666,1.11514 c 0,0.01956 1.134248,1.95602 0.488719,6.220426 l 2.093375,0.313608 c 0.254299,-1.740973 0.293518,-3.325942 0.0979,-4.734368 l 0.605727,-0.390818 c 0.762897,-0.430352 1.134674,-0.469616 1.252043,-0.469616 0.03912,0.09781 0.117586,0.352388 0.0589,0.939232 l 2.112478,0.175908 c 0.05868,-0.704213 0.01959,-1.271626 -0.1369,-1.760663 -0.234736,-0.704213 -0.684352,-1.056093 -0.997336,-1.232147 -0.2543,-0.13693 -0.533409,-0.215188 -0.834166,-0.237195 z m 6.155156,1.938956 c 0.01956,0 0.03854,-4.57e-4 0.05809,0.0191 0.176054,0 0.313246,0.07876 0.430615,0.215704 0.01956,0.03912 0.039,0.05844 0.039,0.078 -0.13693,0.117369 -0.508709,0.351884 -1.252044,0.586622 -0.215177,0.05869 -0.430469,0.117214 -0.606523,0.175907 0.176054,-0.410792 0.449884,-0.723382 0.78243,-0.899435 0.176052,-0.117369 0.372361,-0.175907 0.548415,-0.175907 z m 7.197865,0 c 0.01956,0 0.03934,-4.57e-4 0.0589,0.0191 0.176054,0 0.313246,0.07876 0.430616,0.215704 0.01956,0.03912 0.039,0.05844 0.039,0.078 -0.136931,0.117369 -0.508707,0.351884 -1.252044,0.586622 -0.215177,0.05869 -0.430468,0.117214 -0.606521,0.175907 0.176053,-0.410792 0.449883,-0.723382 0.782428,-0.899435 0.176054,-0.117369 0.371566,-0.175907 0.54762,-0.175907 z m 7.198659,0 c 0.01956,0 0.03934,-4.57e-4 0.0589,0.0191 0.176054,0 0.313245,0.07876 0.430613,0.215704 0.01956,0.03912 0.039,0.05844 0.039,0.078 -0.13693,0.117369 -0.508709,0.351884 -1.252044,0.586622 -0.215177,0.05869 -0.430469,0.117214 -0.606523,0.175907 0.176054,-0.410792 0.449884,-0.723382 0.78243,-0.899435 0.176052,-0.117369 0.371567,-0.175907 0.547619,-0.175907 z" />
      <path
         id="text3-0"
         style="font-style:normal;font-variant:normal;font-weight:normal;font-stretch:normal;font-size:12.7px;line-height:1;font-family:'After Smile';-inkscape-font-specification:'After Smile';text-align:center;text-anchor:middle;fill:#ffffff;fill-opacity:1;fill-rule:evenodd;stroke:none;stroke-width:0.551921;stroke-dasharray:none;stroke-opacity:1"
         d="m 29.258583,63.572436 c -1.243235,0.02012 -2.376233,0.340034 -3.23481,0.934432 -1.151059,0.811404 -1.679589,2.037448 -1.434281,3.263987 0.226438,1.13219 1.113323,2.056791 2.358732,2.490797 0.471746,0.150959 1.000041,0.245701 1.509527,0.245701 0.283046,0 0.585352,-0.0375 0.8684,-0.07524 0.868013,-0.150959 1.679418,-0.547563 2.358731,-1.132529 l -1.320644,-1.547149 c -0.396266,0.339657 -0.887172,0.584842 -1.396658,0.660321 -0.452876,0.09435 -0.943898,0.05652 -1.359035,-0.09444 -0.566094,-0.188699 -0.943412,-0.546938 -1.018892,-0.962074 -0.113219,-0.566095 0.321225,-0.981453 0.604272,-1.170151 0.603834,-0.415137 1.49037,-0.622491 2.471601,-0.565882 1.264278,0.07548 2.641694,0.565617 4.000322,1.395891 l 0.0192,0.0192 -0.05682,12.586045 2.037783,0.0192 0.05682,-11.925723 c 0.07548,0 0.151351,0.01842 0.2457,0.01842 0.144555,0.01278 0.295135,0.01909 0.448406,0.02227 v -0.01233 c 0.0022,0.0051 0.0051,0.0097 0.0107,0.01308 -0.0037,-7.1e-5 -0.0071,-6.92e-4 -0.0107,-7.68e-4 l 0.324786,11.885029 2.037783,-0.05682 -0.112862,-3.641752 c 0.434006,-0.396267 1.07573,-0.83066 1.566345,-0.8684 0.150959,-0.01887 0.282975,0.03771 0.396194,0.132059 0.03774,0.05661 0.320388,0.491202 0.376997,2.170617 0.03774,1.018971 -0.01842,1.924473 -0.01842,1.943343 l 2.037784,0.132059 c 0,-0.03774 0.07581,-1.075934 0.0192,-2.245863 -0.03774,-0.717053 -0.09486,-1.339091 -0.208078,-1.829706 -0.169829,-0.792534 -0.452612,-1.340326 -0.83001,-1.679983 -0.547225,-0.471745 -1.207536,-0.698061 -1.905719,-0.660322 -0.528356,0.03774 -1.038224,0.226574 -1.491101,0.453012 l -0.158937,-5.905274 c 0.0059,-0.01397 0.01025,-0.0289 0.01536,-0.04377 1.07108,-0.229252 1.864982,-0.544359 1.898809,-0.561274 l -0.792386,-1.886523 c 0,0.01887 -0.811386,0.339559 -1.868098,0.528256 -0.868012,0.150959 -2.094991,0.207083 -2.963002,-0.340141 -1.660546,-1.018972 -3.358904,-1.603293 -4.94397,-1.697642 -0.181622,-0.0094 -0.361401,-0.01293 -0.539007,-0.01 z m 24.494875,8.327736 c -0.479412,0.0345 -0.952996,0.182913 -1.405871,0.437654 -0.792534,0.434007 -1.396376,1.150577 -1.736034,2.01859 -0.377395,0.962361 -0.396917,2.019604 -0.03839,3.057444 0.339657,1.000102 1.075632,1.754947 2.094603,2.094603 0.434006,0.150959 0.906368,0.226506 1.415854,0.226506 0.301916,0 0.62209,-0.0194 0.942877,-0.07601 0.792534,-0.150959 1.547353,-0.452821 2.226668,-0.886828 l -1.207774,-1.830474 c -0.830274,0.547226 -1.94343,0.755139 -2.660485,0.509831 -0.132089,-0.05661 -0.264221,-0.113398 -0.35857,-0.188883 0.301918,-0.05661 0.641496,-0.151235 1.018892,-0.283324 1.396369,-0.452877 2.226828,-1.094318 2.547614,-1.90572 0.132089,-0.377397 0.150843,-0.773119 0.03762,-1.169384 -0.07548,-0.339658 -0.263637,-0.698874 -0.546685,-1.01966 -0.490616,-0.566096 -1.132616,-0.905024 -1.84967,-0.980502 -0.160393,-0.01411 -0.320849,-0.01533 -0.480653,-0.0039 z m 6.94413,0 c -0.479412,0.0345 -0.952994,0.182913 -1.405871,0.437654 -0.792532,0.434007 -1.396375,1.150577 -1.736032,2.01859 -0.377397,0.962361 -0.396918,2.019604 -0.03839,3.057444 0.339656,1.000102 1.075631,1.754947 2.094603,2.094603 0.434005,0.150959 0.906368,0.226506 1.415853,0.226506 0.301917,0 0.622091,-0.0194 0.942879,-0.07601 0.792532,-0.150959 1.547353,-0.452821 2.226666,-0.886828 l -1.207779,-1.830478 c -0.830272,0.547226 -1.94343,0.755139 -2.660483,0.509831 -0.132088,-0.05661 -0.264221,-0.113398 -0.35857,-0.188883 0.301916,-0.05661 0.641495,-0.151235 1.018892,-0.283324 1.396368,-0.452877 2.226827,-1.094318 2.547615,-1.90572 0.132088,-0.377397 0.150841,-0.773119 0.03762,-1.169384 -0.07548,-0.339658 -0.263637,-0.698874 -0.546685,-1.01966 -0.490614,-0.566096 -1.132616,-0.905024 -1.849669,-0.980502 -0.160393,-0.01411 -0.320848,-0.01533 -0.480653,-0.0039 z m 6.944131,0 c -0.479411,0.0345 -0.953764,0.182913 -1.406639,0.437654 -0.792534,0.434007 -1.395608,1.150577 -1.735266,2.01859 -0.377395,0.962361 -0.396917,2.019604 -0.03839,3.057444 0.339657,1.000102 1.075632,1.754947 2.094603,2.094603 0.434006,0.150959 0.9056,0.226506 1.415086,0.226506 0.301917,0 0.622858,-0.0194 0.943645,-0.07601 0.792534,-0.150959 1.547354,-0.452821 2.226668,-0.886828 l -1.207779,-1.830478 c -0.830272,0.547226 -1.943428,0.755139 -2.660483,0.509831 -0.132089,-0.05661 -0.264221,-0.113398 -0.35857,-0.188883 0.301918,-0.05661 0.641496,-0.151235 1.018892,-0.283324 1.396368,-0.452877 2.226828,-1.094318 2.547614,-1.90572 0.132089,-0.377397 0.150843,-0.773119 0.03762,-1.169384 -0.07548,-0.339658 -0.263638,-0.698874 -0.546685,-1.01966 -0.490616,-0.566096 -1.132616,-0.905024 -1.84967,-0.980502 -0.160393,-0.01411 -0.320849,-0.01533 -0.480653,-0.0039 z M 48.014032,72.20346 c -0.290125,-0.02123 -0.60114,0.01189 -0.931361,0.09674 -0.415137,0.09435 -0.867978,0.282832 -1.377464,0.56588 l -0.188883,0.112863 c -0.169827,-0.434006 -0.320503,-0.6794 -0.339373,-0.71714 l -1.736033,1.075711 c 0,0.01887 1.094143,1.886859 0.471439,6.000484 l 2.019357,0.30252 c 0.245308,-1.679416 0.28314,-3.208344 0.09444,-4.566971 l 0.584309,-0.376999 c 0.735923,-0.415136 1.094555,-0.453012 1.207774,-0.453012 0.03774,0.09435 0.113428,0.339929 0.05682,0.906023 l 2.037785,0.169688 c 0.05661,-0.679313 0.0189,-1.226664 -0.132059,-1.698409 -0.226437,-0.679314 -0.660155,-1.018752 -0.962073,-1.188581 -0.245308,-0.132089 -0.514548,-0.20758 -0.804671,-0.228808 z m 5.937522,1.870399 c 0.01887,0 0.03718,-4.41e-4 0.05604,0.01842 0.169829,0 0.302171,0.07598 0.41539,0.208078 0.01887,0.03774 0.03762,0.05637 0.03762,0.07524 -0.132089,0.113219 -0.490722,0.339442 -1.207775,0.56588 -0.207568,0.05661 -0.415248,0.11307 -0.585077,0.169687 0.169829,-0.396267 0.433977,-0.697804 0.754765,-0.867633 0.169827,-0.113219 0.359195,-0.169687 0.529024,-0.169687 z m 6.943364,0 c 0.01887,0 0.03795,-4.41e-4 0.05682,0.01842 0.169829,0 0.30217,0.07598 0.41539,0.208078 0.01887,0.03774 0.03762,0.05637 0.03762,0.07524 -0.132089,0.113219 -0.49072,0.339442 -1.207774,0.56588 -0.207569,0.05661 -0.415247,0.11307 -0.585076,0.169687 0.169829,-0.396267 0.433976,-0.697804 0.754763,-0.867633 0.169829,-0.113219 0.358429,-0.169687 0.528258,-0.169687 z m 6.944129,0 c 0.01887,0 0.03795,-4.41e-4 0.05682,0.01842 0.169829,0 0.30217,0.07598 0.415388,0.208078 0.01887,0.03774 0.03762,0.05637 0.03762,0.07524 -0.132089,0.113219 -0.490722,0.339442 -1.207775,0.56588 -0.207568,0.05661 -0.415248,0.11307 -0.585077,0.169687 0.169829,-0.396267 0.433977,-0.697804 0.754765,-0.867633 0.169827,-0.113219 0.358429,-0.169687 0.528256,-0.169687 z" />
    </g>
  </g>
</svg>
