<?xml version="1.0" standalone="no"?>
<!DOCTYPE svg PUBLIC "-//W3C//DTD SVG 20010904//EN"
 "http://www.w3.org/TR/2001/REC-SVG-20010904/DTD/svg10.dtd">
<svg version="1.0" xmlns="http://www.w3.org/2000/svg"
 width="360.000000pt" height="640.000000pt" viewBox="0 0 360.000000 640.000000"
 preserveAspectRatio="xMidYMid meet">

<g transform="translate(0.000000,640.000000) scale(0.100000,-0.100000)"
fill="#000000" stroke="none">
<path d="M1997 5566 c-61 -22 -113 -62 -157 -120 -44 -58 -80 -140 -80 -180 0
-56 -10 -54 -73 9 -102 102 -222 147 -335 125 -70 -13 -100 -30 -151 -85 -174
-188 -174 -617 0 -885 58 -90 131 -160 167 -160 36 0 56 22 48 53 -3 13 -25
52 -48 87 -42 63 -43 65 -43 149 0 153 59 226 180 225 125 -1 216 -70 295
-226 34 -67 50 -88 65 -88 36 0 47 17 62 95 27 144 78 212 176 236 147 35 325
-40 389 -165 17 -34 20 -53 16 -135 -4 -82 -10 -106 -36 -161 -38 -77 -41
-124 -12 -140 46 -25 89 24 129 149 54 165 78 370 62 528 -44 442 -250 704
-551 702 -36 0 -82 -6 -103 -13z"/>
<path d="M1346 4131 c-3 -4 -6 -134 -8 -287 -1 -254 0 -279 16 -288 29 -18 46
18 46 98 0 60 5 79 30 123 45 79 120 110 140 57 6 -14 10 -64 11 -112 0 -48 6
-107 12 -132 10 -38 16 -45 37 -45 24 0 25 2 23 55 -1 30 -6 106 -11 169 -8
107 -11 116 -36 138 -45 39 -122 27 -170 -26 -11 -12 -23 -21 -28 -21 -5 0 -7
56 -6 123 2 94 0 128 -11 140 -15 18 -37 22 -45 8z"/>
<path d="M2688 4135 c-3 -3 -36 -8 -73 -10 -37 -2 -69 -6 -71 -8 -2 -2 -7
-116 -10 -254 -8 -336 -8 -336 186 -337 137 0 162 6 158 42 l-3 27 -116 -4
c-71 -2 -124 1 -136 7 -24 13 -36 84 -27 153 l6 45 131 12 c102 8 134 15 144
27 13 19 8 41 -11 48 -7 3 -67 0 -134 -6 -67 -6 -124 -8 -126 -6 -2 2 -2 43 1
91 l6 87 56 12 c34 7 81 9 121 4 118 -13 115 -14 115 20 0 27 -4 31 -45 42
-46 12 -163 17 -172 8z"/>
<path d="M825 4096 c-24 -17 -15 -49 15 -57 14 -4 55 -7 91 -8 l66 -1 8 -92
c4 -51 10 -156 14 -233 6 -135 7 -140 28 -143 41 -6 46 27 34 229 -6 101 -11
197 -11 212 l0 29 104 -7 c97 -7 105 -6 115 12 7 15 7 25 -2 37 -10 13 -41 17
-197 21 -102 3 -199 8 -217 10 -17 2 -39 -2 -48 -9z"/>
<path d="M1884 3910 c-32 -16 -60 -30 -61 -30 -1 0 -3 10 -5 23 -2 16 -10 22
-28 22 l-25 0 -3 -193 -2 -193 27 3 28 3 5 122 c5 112 7 123 30 148 30 32 71
55 100 55 15 0 20 -6 20 -28 0 -37 21 -65 42 -57 33 13 34 107 1 140 -22 23
-64 18 -129 -15z"/>
<path d="M2245 3930 c-96 -21 -152 -112 -143 -231 5 -70 27 -105 84 -134 100
-50 294 10 267 83 -7 18 -30 15 -62 -9 -63 -46 -164 -45 -209 4 l-22 24 114
56 c129 63 154 88 140 139 -15 52 -96 84 -169 68z m96 -70 c10 -6 19 -15 19
-20 0 -12 -187 -106 -195 -98 -12 11 15 75 42 102 20 20 36 26 70 26 24 0 53
-5 64 -10z"/>
<path d="M2560 3191 l0 -109 36 -6 c62 -12 112 40 98 102 -13 55 -51 75 -95
52 -17 -10 -19 -7 -19 30 0 22 -4 40 -10 40 -6 0 -10 -43 -10 -109z m102 -6
c8 -18 9 -35 2 -53 -8 -22 -15 -27 -44 -27 -34 0 -35 1 -38 44 -4 47 6 61 46
61 14 0 27 -9 34 -25z"/>
<path d="M435 3281 c-6 -11 -3 -13 25 -15 11 -1 16 -16 18 -61 5 -86 -2 -105
-38 -105 -17 0 -30 -4 -30 -9 0 -17 37 -22 64 -10 31 14 39 46 34 139 -3 65
-3 65 -35 68 -17 2 -34 -2 -38 -7z"/>
<path d="M1560 3185 l0 -105 65 0 c37 0 65 4 65 10 0 6 -22 10 -50 10 l-50 0
0 95 c0 78 -3 95 -15 95 -12 0 -15 -18 -15 -105z"/>
<path d="M2376 3190 c-20 -56 -36 -103 -36 -106 0 -2 7 -4 15 -4 8 0 15 6 15
14 0 33 29 44 97 37 7 0 15 -12 19 -26 3 -14 12 -25 20 -25 19 0 19 2 -20 110
-26 73 -38 96 -54 98 -16 3 -25 -13 -56 -98z m75 15 l17 -45 -34 0 c-19 0 -34
3 -34 6 0 16 24 84 29 84 3 0 13 -20 22 -45z"/>
<path d="M573 3233 c-28 -11 -11 -23 32 -23 33 0 45 -4 45 -15 0 -10 -10 -15
-28 -15 -15 0 -38 -7 -50 -16 -44 -31 -15 -102 37 -89 14 3 36 6 49 6 21 -1
22 3 22 63 0 45 -5 69 -16 80 -15 15 -65 20 -91 9z m75 -100 c-2 -23 -8 -29
-35 -31 -29 -3 -33 0 -33 22 0 24 12 32 53 35 14 1 18 -5 15 -26z"/>
<path d="M737 3233 c-4 -3 -7 -39 -7 -80 0 -58 3 -73 15 -73 12 0 15 13 15 60
0 55 2 60 25 66 46 11 55 0 55 -66 0 -47 3 -60 15 -60 11 0 15 12 15 49 0 91
-26 124 -81 104 -16 -7 -29 -7 -29 -2 0 11 -14 12 -23 2z"/>
<path d="M930 3220 c-14 -14 -20 -33 -20 -63 0 -57 25 -82 75 -74 38 6 44 -3
18 -28 -11 -12 -26 -15 -50 -12 -24 4 -33 2 -33 -9 0 -16 75 -20 98 -6 18 12
28 58 27 136 l0 68 -47 4 c-38 4 -52 0 -68 -16z m90 -55 c0 -38 -4 -47 -22
-54 -45 -17 -77 23 -59 73 9 21 17 26 46 26 35 0 35 0 35 -45z"/>
<path d="M1107 3233 c-16 -16 -4 -23 38 -23 33 0 45 -4 45 -15 0 -10 -10 -15
-28 -15 -41 0 -72 -26 -72 -60 0 -36 30 -55 68 -44 15 4 35 6 45 5 15 -2 17 7
17 63 0 56 -3 67 -22 80 -23 16 -79 22 -91 9z m81 -100 c-2 -22 -9 -29 -32
-31 -33 -4 -49 8 -40 31 6 16 23 24 57 26 14 1 18 -5 15 -26z"/>
<path d="M1277 3234 c-4 -4 -7 -40 -7 -81 0 -57 3 -73 15 -73 10 0 15 16 17
63 3 61 3 62 34 65 36 3 44 -12 44 -85 0 -24 5 -43 10 -43 6 0 10 30 10 70 0
65 -2 71 -25 82 -18 8 -32 8 -49 0 -15 -6 -27 -7 -33 -1 -5 5 -12 6 -16 3z"/>
<path d="M1720 3171 c0 -81 16 -107 59 -96 14 3 36 6 49 6 22 -1 23 2 20 74
-4 88 -22 101 -26 18 -3 -59 -12 -73 -48 -73 -25 0 -34 23 -34 93 0 26 -4 47
-10 47 -6 0 -10 -30 -10 -69z"/>
<path d="M1907 3233 c-4 -3 -7 -53 -7 -110 0 -85 3 -103 15 -103 10 0 15 10
15 28 0 26 3 28 36 28 47 0 74 31 74 85 0 60 -47 96 -90 69 -9 -5 -19 -5 -26
0 -6 6 -14 7 -17 3z m101 -66 c4 -47 -11 -67 -49 -67 -28 0 -29 2 -29 48 0 58
5 64 45 60 27 -3 30 -7 33 -41z"/>
<path d="M2093 3233 c-27 -10 -11 -22 34 -25 49 -3 75 -28 29 -28 -72 0 -111
-55 -66 -92 17 -14 31 -17 49 -12 14 4 37 6 50 5 23 -1 23 1 19 65 -3 50 -9
70 -23 80 -18 14 -67 17 -92 7z m87 -97 c0 -36 -64 -52 -77 -20 -8 21 21 44
54 44 18 0 23 -6 23 -24z"/>
<path d="M2748 3229 c-21 -12 -24 -52 -5 -66 6 -6 26 -15 42 -20 17 -5 32 -18
34 -28 3 -16 -3 -17 -43 -13 -34 4 -46 2 -46 -7 0 -19 51 -28 84 -16 53 21 45
67 -15 87 -37 12 -50 38 -24 47 8 4 26 2 40 -3 19 -7 25 -6 25 4 0 25 -59 35
-92 15z"/>
<path d="M2906 3219 c-21 -16 -26 -29 -26 -63 0 -64 53 -100 113 -77 41 16 33
27 -19 27 -37 -1 -49 3 -61 22 l-15 22 61 0 c58 0 61 1 61 25 0 32 -33 65 -64
65 -13 0 -35 -9 -50 -21z m72 -11 c24 -24 13 -38 -28 -38 -43 0 -55 20 -22 39
23 14 36 13 50 -1z"/>
<path d="M3067 3234 c-4 -4 -7 -40 -7 -81 0 -57 3 -73 15 -73 10 0 15 16 17
63 3 61 3 62 34 65 36 3 44 -12 44 -85 0 -24 5 -43 10 -43 6 0 10 30 10 70 0
65 -2 71 -25 82 -18 8 -32 8 -49 0 -15 -6 -27 -7 -33 -1 -5 5 -12 6 -16 3z"/>
<path d="M830 2895 c0 -63 4 -105 10 -105 6 0 10 36 10 87 0 53 4 83 9 78 5
-6 28 -45 51 -87 30 -56 47 -78 61 -78 17 0 19 8 19 105 0 87 -3 105 -15 105
-12 0 -15 -16 -15 -82 l-1 -83 -45 83 c-33 58 -51 82 -65 82 -18 0 -19 -8 -19
-105z"/>
<path d="M1510 2985 c0 -8 7 -15 15 -15 8 0 15 7 15 15 0 8 -7 15 -15 15 -8 0
-15 -7 -15 -15z"/>
<path d="M1700 2895 l0 -105 54 0 c64 0 110 30 120 80 14 74 -43 130 -134 130
l-40 0 0 -105z m117 60 c42 -29 34 -112 -13 -134 -14 -6 -36 -11 -49 -11 -24
0 -25 2 -25 80 l0 80 33 0 c18 0 42 -7 54 -15z"/>
<path d="M2667 2993 c-4 -3 -7 -51 -7 -105 l0 -98 70 0 c40 0 70 4 70 10 0 6
-25 10 -55 10 l-55 0 0 40 0 40 55 0 c43 0 55 3 55 16 0 12 -10 15 -52 13 -51
-3 -53 -2 -56 24 -3 26 -2 27 52 27 43 0 56 3 56 15 0 12 -14 15 -63 15 -35 0
-67 -3 -70 -7z"/>
<path d="M1400 2972 c0 -10 -6 -24 -12 -31 -10 -11 -10 -14 0 -18 7 -3 12 -24
12 -58 0 -59 18 -88 53 -83 31 5 33 28 3 28 -25 0 -26 3 -26 55 0 52 1 55 25
55 15 0 25 6 25 14 0 9 -9 13 -25 11 -20 -2 -25 2 -25 21 0 15 -6 24 -15 24
-8 0 -15 -8 -15 -18z"/>
<path d="M2450 2970 c0 -11 -4 -20 -10 -20 -5 0 -10 -7 -10 -15 0 -8 5 -15 10
-15 6 0 10 -27 10 -60 0 -49 3 -61 20 -70 22 -12 60 -5 60 11 0 5 -11 9 -24 9
-28 0 -36 16 -36 71 0 37 2 39 30 39 17 0 30 5 30 10 0 6 -13 13 -30 17 -21 4
-30 11 -30 24 0 11 -4 19 -10 19 -5 0 -10 -9 -10 -20z"/>
<path d="M1053 2943 c-27 -10 -11 -22 34 -25 49 -3 75 -28 29 -28 -72 0 -111
-55 -66 -92 17 -14 31 -17 49 -12 14 4 37 6 50 5 23 -1 23 1 19 65 -3 50 -9
70 -23 80 -18 14 -67 17 -92 7z m87 -97 c0 -36 -64 -52 -77 -20 -8 21 21 44
54 44 18 0 23 -6 23 -24z"/>
<path d="M1220 2870 c0 -47 4 -80 10 -80 6 0 10 24 10 54 0 59 14 80 52 74 21
-3 23 -9 26 -65 2 -47 7 -63 17 -63 24 0 21 122 -3 143 -21 19 -45 21 -73 7
-13 -7 -19 -7 -19 0 0 5 -4 10 -10 10 -6 0 -10 -33 -10 -80z"/>
<path d="M1516 2943 c-3 -3 -6 -39 -6 -80 0 -58 3 -73 15 -73 12 0 15 15 15
74 0 69 -8 95 -24 79z"/>
<path d="M1933 2943 c-28 -11 -11 -23 32 -23 33 0 45 -4 45 -15 0 -10 -10 -15
-28 -15 -15 0 -38 -7 -50 -16 -44 -31 -15 -102 37 -89 14 3 36 6 49 6 21 -1
22 3 22 63 0 45 -5 69 -16 80 -15 15 -65 20 -91 9z m80 -85 c8 -24 -13 -48
-43 -48 -25 0 -30 4 -30 24 0 24 13 32 52 35 9 0 18 -5 21 -11z"/>
<path d="M2141 2941 c-7 -5 -22 -6 -32 -4 -18 5 -19 -2 -19 -101 0 -88 3 -106
15 -106 10 0 15 10 15 31 0 29 2 30 30 24 23 -5 35 -1 55 19 60 60 5 180 -64
137z m57 -64 c4 -47 -11 -67 -49 -67 -28 0 -29 2 -29 49 0 52 8 61 50 58 21
-2 25 -8 28 -40z"/>
<path d="M2293 2935 c-47 -33 -37 -123 17 -145 33 -14 90 -4 90 15 0 10 -11
12 -42 8 -33 -5 -44 -2 -55 12 -21 30 -16 34 45 37 54 3 57 4 54 27 -6 55 -63
78 -109 46z m68 -15 c36 -20 23 -40 -26 -40 -48 0 -55 9 -29 34 18 19 28 20
55 6z"/>
</g>
</svg>
